<svg xmlns="http://www.w3.org/2000/svg" width="550" height="550" viewBox="0 0 550 550" version="1.1">
	<path d="M -0 125.110 L -0 250.227 3 249.787 C 4.650 249.545, 6 249.718, 6 250.173 C 6 250.628, 4.763 251.061, 3.250 251.136 C 0.811 251.257, 0.761 251.322, 2.805 251.713 C 4.073 251.955, 5.741 251.630, 6.511 250.991 C 7.282 250.351, 8.377 250.115, 8.945 250.466 C 9.561 250.846, 9.737 250.478, 9.382 249.552 C 9.054 248.698, 9.284 248, 9.893 248 C 10.502 248, 11.014 248.787, 11.032 249.750 C 11.062 251.417, 11.127 251.417, 12.392 249.750 C 14.007 247.622, 15.427 247.445, 14.651 249.468 C 13.812 251.654, 15.710 252.320, 16.939 250.271 C 17.948 248.587, 18.052 248.586, 19.050 250.250 C 20.257 252.262, 22.122 252.608, 21.750 250.750 C 21.613 250.063, 22.175 249.500, 23 249.500 C 23.825 249.500, 24.387 250.063, 24.250 250.750 C 24.112 251.438, 24.450 252, 25 252 C 25.550 252, 26 251.586, 26 251.080 C 26 250.172, 32.199 250.363, 36.952 251.419 C 38.346 251.728, 39.782 251.431, 40.279 250.732 C 40.964 249.766, 41.265 249.781, 41.677 250.803 C 42.071 251.780, 42.552 251.655, 43.601 250.303 C 44.931 248.589, 45.067 248.586, 46.360 250.250 C 47.889 252.217, 51.632 252.605, 52.214 250.857 C 52.497 250.010, 53.184 250.028, 54.862 250.926 C 56.285 251.688, 57.569 251.795, 58.314 251.214 C 60.086 249.832, 64 249.056, 64 250.087 C 64 251.464, 68.043 250.540, 69.082 248.926 C 69.661 248.026, 70.277 247.869, 70.750 248.500 C 71.718 249.791, 78.197 252.127, 77.448 250.916 C 76.650 249.624, 78.374 249.774, 79.713 251.113 C 80.325 251.725, 81.389 251.878, 82.077 251.452 C 83.874 250.342, 89.076 250.067, 88.427 251.117 C 87.600 252.456, 89.307 252.174, 91.554 250.600 C 93.194 249.451, 93.868 249.431, 95.312 250.486 C 96.550 251.391, 98.174 251.523, 100.786 250.931 C 103.245 250.373, 104.625 250.450, 104.871 251.157 C 105.101 251.820, 105.561 251.710, 106.082 250.868 C 107.155 249.132, 107.972 250.228, 116.023 264.209 L 122.190 274.919 101.215 311.209 C 54.106 392.718, 49.894 400.292, 50.201 402.930 L 50.500 405.500 124.381 406 L 198.262 406.500 234.937 470 L 271.613 533.500 274.940 533.500 L 278.268 533.500 314.976 470 L 351.685 406.500 425.592 406 L 499.500 405.500 499.799 402.928 C 499.992 401.268, 498.363 397.365, 495.207 391.928 C 492.517 387.292, 476.262 359.094, 459.084 329.264 L 427.852 275.028 435.527 261.764 C 439.749 254.469, 442.954 249.268, 442.649 250.207 C 442.170 251.685, 442.456 251.777, 444.778 250.894 C 446.252 250.334, 447.782 249.352, 448.177 248.714 C 448.677 247.904, 449.612 248.226, 451.262 249.776 C 453.940 252.292, 455.908 252.799, 453.980 250.476 C 453.284 249.638, 453.066 248.625, 453.494 248.226 C 453.923 247.827, 454.476 248.065, 454.722 248.756 C 454.969 249.447, 455.582 249.758, 456.085 249.447 C 456.588 249.136, 457 249.295, 457 249.799 C 457 250.304, 458.789 250.615, 460.976 250.492 C 463.163 250.369, 464.712 250.657, 464.417 251.134 C 463.720 252.261, 465.107 252.218, 466.946 251.054 C 467.823 250.500, 469.074 250.504, 470.124 251.066 C 472.260 252.209, 475 251.269, 475 249.393 C 475 248.627, 475.450 248, 476 248 C 476.550 248, 477 248.787, 477.001 249.750 C 477.001 250.918, 477.845 251.549, 479.537 251.646 C 481.601 251.766, 481.857 251.533, 480.914 250.396 C 480.229 249.571, 480.164 249, 480.755 249 C 481.305 249, 482.315 249.675, 483 250.500 C 484.608 252.437, 486.105 252.437, 485.362 250.500 C 485.045 249.675, 485.284 249, 485.893 249 C 486.502 249, 487 249.356, 487 249.792 C 487 250.228, 488.238 250.651, 489.750 250.733 C 491.262 250.816, 493.896 251.008, 495.602 251.160 C 497.466 251.327, 499.363 250.780, 500.352 249.790 C 502.379 247.763, 502.436 247, 500.559 247 C 499.766 247, 498.844 246.556, 498.508 246.013 C 498.120 245.385, 498.734 245.334, 500.199 245.871 C 501.656 246.406, 502.616 247.685, 502.816 249.358 C 503.096 251.689, 503.375 251.870, 505.194 250.896 C 506.327 250.290, 507.535 250.177, 507.877 250.647 C 508.919 252.073, 511.124 252.142, 512.744 250.797 C 514.395 249.427, 518.901 249.596, 520.450 251.086 C 520.973 251.589, 521.873 251.993, 522.450 251.985 C 523.028 251.976, 522.838 251.551, 522.029 251.039 C 519.646 249.532, 521.610 248.715, 524.164 250.150 C 527.639 252.102, 530.189 251.993, 530.744 249.870 C 531.013 248.841, 531.856 248, 532.617 248 C 533.377 248, 534.036 247.213, 534.079 246.250 C 534.122 245.287, 534.377 245.038, 534.644 245.695 C 534.911 246.352, 534.649 247.787, 534.062 248.884 C 533.451 250.026, 533.378 251.116, 533.893 251.434 C 534.386 251.739, 535.038 251.342, 535.342 250.552 C 535.645 249.762, 536.828 249.187, 537.971 249.273 C 539.114 249.359, 539.849 249.951, 539.604 250.590 C 539.342 251.273, 540.153 251.750, 541.579 251.750 C 542.911 251.750, 544 251.356, 544 250.875 C 544 250.394, 543.475 250, 542.833 250 C 542.192 250, 541.902 249.764, 542.190 249.476 C 542.992 248.675, 546.057 250.099, 545.493 251.012 C 545.220 251.453, 545.936 251.568, 547.083 251.268 C 548.706 250.843, 548.873 250.515, 547.835 249.785 C 546.791 249.052, 546.773 248.737, 547.750 248.341 C 548.739 247.939, 549.051 222.079, 549.244 124.667 L 549.488 1.500 550 125.500 L 550.512 249.500 550.756 124.757 L 551 0.014 275.500 0.004 L 0 -0.007 -0 125.110 M -0 125.500 C -0 194.158, 0.232 250.101, 0.515 249.818 C 1.174 249.159, 1.152 1.818, 0.493 1.159 C 0.222 0.888, -0 56.842, -0 125.500 M 237.943 83.243 L 201.425 146.500 127.713 146.756 C 87.171 146.897, 54 147.221, 54 147.476 C 54 147.923, 76.551 187.023, 110.631 245.667 C 119.634 261.159, 127 274.457, 127 275.217 C 127 275.978, 126.618 277.028, 126.150 277.550 C 124.414 279.490, 118.709 290.298, 119.765 289.645 C 120.368 289.272, 121.149 289.432, 121.500 290 C 121.851 290.568, 122.670 290.702, 123.319 290.297 C 125.614 288.868, 130.529 289.477, 132.832 291.476 C 134.553 292.969, 135.078 293.107, 134.832 292 C 134.650 291.175, 134.105 290.213, 133.621 289.862 C 133.138 289.510, 134.112 289.279, 135.785 289.347 C 137.458 289.416, 138.614 289.816, 138.354 290.236 C 138.094 290.656, 138.359 291, 138.941 291 C 139.523 291, 140 290.592, 140 290.094 C 140 289.595, 140.787 289.391, 141.750 289.640 C 143.139 290, 146.505 284.885, 158.059 264.860 C 166.066 250.982, 173.041 239.497, 173.559 239.337 C 174.076 239.178, 181.050 250.399, 189.057 264.274 C 197.063 278.148, 204.150 289.387, 204.807 289.250 C 205.463 289.112, 206 289.681, 206 290.513 C 206 291.858, 206.395 291.862, 209.537 290.549 C 211.679 289.654, 212.801 289.512, 212.383 290.190 C 211.916 290.944, 212.149 291.023, 213.095 290.430 C 213.868 289.946, 215.569 289.404, 216.877 289.224 C 218.785 288.962, 219.121 289.242, 218.584 290.643 C 217.950 292.293, 218.020 292.292, 219.858 290.629 C 221.023 289.574, 222.048 289.269, 222.417 289.866 C 222.756 290.413, 224.186 290.652, 225.596 290.397 C 227.402 290.069, 227.943 290.283, 227.426 291.120 C 226.962 291.870, 227.118 292.045, 227.848 291.594 C 228.614 291.120, 228.692 290.308, 228.079 289.189 C 227.570 288.260, 221.960 278.521, 215.613 267.547 C 209.265 256.573, 204.258 247.409, 204.484 247.182 C 204.711 246.955, 218.083 254.381, 234.198 263.683 L 263.500 280.597 263.825 284.536 C 264.003 286.702, 264.561 288.971, 265.064 289.577 C 266.086 290.809, 271.821 290.865, 273.750 289.662 C 274.438 289.233, 275 289.267, 275 289.737 C 275 290.849, 279.093 290.747, 280.902 289.591 C 281.850 288.984, 282.708 289.248, 283.556 290.407 C 285.124 292.551, 285.588 291.680, 285.901 286 C 286.038 283.525, 286.679 281.011, 287.325 280.414 C 289.361 278.531, 345.080 246.747, 345.539 247.206 C 345.780 247.446, 341.438 255.486, 335.890 265.072 C 330.342 274.657, 324.756 284.322, 323.477 286.550 L 321.150 290.600 323.575 290.600 C 324.909 290.600, 326.001 290.353, 326.003 290.050 C 326.004 289.748, 328.490 289.413, 331.527 289.307 C 335.575 289.165, 336.857 289.432, 336.332 290.307 C 335.938 290.963, 336.464 290.825, 337.500 290 C 338.598 289.126, 339.071 289.021, 338.633 289.750 C 338.201 290.468, 338.384 291, 339.063 291 C 339.899 291, 339.843 291.512, 338.872 292.750 C 337.630 294.334, 337.665 294.370, 339.239 293.137 C 340.195 292.387, 340.691 291.309, 340.340 290.742 C 339.939 290.093, 340.662 289.893, 342.287 290.204 C 343.708 290.476, 345.255 290.428, 345.725 290.099 C 346.194 289.770, 352.792 278.700, 360.386 265.500 C 367.980 252.300, 374.760 240.906, 375.453 240.180 C 376.776 238.792, 378.687 241.778, 398.551 276.265 C 403.136 284.225, 406.976 289.840, 407.657 289.578 C 408.304 289.330, 409.121 289.873, 409.471 290.785 C 409.837 291.738, 410.404 292.030, 410.804 291.472 C 411.866 289.989, 413.998 289.841, 414.015 291.250 C 414.026 292.143, 414.283 292.102, 414.915 291.104 C 415.881 289.578, 424.832 288.919, 425.692 290.310 C 425.973 290.765, 426.820 290.899, 427.575 290.610 C 428.330 290.320, 429.395 290.852, 429.943 291.792 C 430.855 293.356, 430.942 293.340, 430.970 291.600 C 430.986 290.555, 429.200 286.578, 427 282.762 C 424.800 278.946, 423 275.392, 423 274.864 C 423 274.335, 432.067 258.287, 443.148 239.202 C 454.230 220.116, 468.785 195.050, 475.493 183.500 C 495.402 149.222, 496 148.175, 496 147.582 C 496 147.269, 462.835 146.897, 422.300 146.756 L 348.600 146.500 312.284 83.500 C 292.311 48.850, 275.629 20.385, 275.215 20.243 C 274.800 20.102, 258.028 48.452, 237.943 83.243 M 233.674 134.352 C 211.303 173.046, 193 204.996, 193 205.352 C 193 205.709, 229.900 206, 275 206 C 320.100 206, 357 205.649, 357 205.220 C 357 204.791, 353.718 198.828, 349.707 191.970 C 345.695 185.111, 327.414 153.512, 309.082 121.750 C 290.750 89.987, 275.435 64, 275.049 64 C 274.663 64, 256.044 95.659, 233.674 134.352 M 121.021 173.340 C 125.134 175.726, 137.596 182.963, 148.714 189.421 C 159.831 195.879, 169.336 200.910, 169.836 200.602 C 170.568 200.149, 186.619 172.670, 187.833 169.791 C 188.017 169.356, 171.376 169, 150.854 169 L 113.542 169 121.021 173.340 M 362 169.402 C 362 170.071, 379.059 199.433, 380.006 200.393 C 380.519 200.914, 392.270 194.705, 408.193 185.501 C 423.212 176.819, 435.687 169.555, 435.917 169.358 C 436.146 169.161, 419.608 169, 399.167 169 C 378.725 169, 362 169.181, 362 169.402 M 103.258 189.231 C 103.577 190.061, 111.940 204.785, 121.844 221.950 C 139.223 252.073, 139.900 253.078, 141.311 250.830 C 142.115 249.548, 145.580 243.550, 149.011 237.500 C 152.442 231.450, 156.082 225.115, 157.100 223.422 L 158.950 220.345 132.301 204.922 C 117.644 196.440, 104.983 189.100, 104.165 188.610 C 103.059 187.948, 102.827 188.107, 103.258 189.231 M 418.500 204.593 C 403.650 213.165, 391.439 220.251, 391.364 220.339 C 391.236 220.491, 407.526 249.002, 409.366 251.846 C 410.009 252.840, 410.809 252.194, 412.466 249.343 C 414.713 245.478, 445.924 191.151, 446.701 189.750 C 447.718 187.920, 443.927 189.915, 418.500 204.593 M 215.550 227.838 C 217.479 229.538, 273.990 262, 275.022 262 C 275.610 262, 285.633 256.438, 297.295 249.640 C 308.958 242.842, 322.212 235.152, 326.750 232.552 C 331.288 229.952, 335 227.639, 335 227.412 C 335 227.186, 307.910 227, 274.800 227 C 241.690 227, 215.028 227.377, 215.550 227.838 M 492.079 244.200 C 492.036 245.135, 491.212 246.359, 490.250 246.920 C 489.288 247.481, 489.007 247.953, 489.628 247.970 C 491.278 248.014, 493.272 245.274, 492.673 243.784 C 492.341 242.957, 492.130 243.105, 492.079 244.200 M 472.459 245.067 C 472.096 245.653, 472.014 246.348, 472.276 246.610 C 472.538 246.872, 473.019 246.392, 473.345 245.543 C 474.021 243.781, 473.445 243.471, 472.459 245.067 M 485 244.893 C 485 245.384, 485.652 246.036, 486.449 246.342 C 487.418 246.714, 487.714 246.418, 487.342 245.449 C 486.735 243.867, 485 243.455, 485 244.893 M 507.565 244.895 C 507.260 245.388, 507.661 246.040, 508.455 246.344 C 509.418 246.714, 509.713 246.416, 509.342 245.449 C 508.697 243.769, 508.331 243.655, 507.565 244.895 M 95 246 C 95 246.550, 95.450 247, 96 247 C 96.550 247, 97 246.550, 97 246 C 97 245.450, 96.550 245, 96 245 C 95.450 245, 95 245.450, 95 246 M 271 246.969 C 271 247.501, 271.675 247.678, 272.500 247.362 C 273.325 247.045, 274 246.609, 274 246.393 C 274 246.177, 273.325 246, 272.500 246 C 271.675 246, 271 246.436, 271 246.969 M 453.269 246.693 C 454.242 246.947, 455.592 246.930, 456.269 246.656 C 456.946 246.382, 456.150 246.175, 454.500 246.195 C 452.850 246.215, 452.296 246.439, 453.269 246.693 M 48 249.500 C 48 250.325, 48.661 251, 49.469 251 C 50.363 251, 50.712 250.414, 50.362 249.500 C 50.045 248.675, 49.384 248, 48.893 248 C 48.402 248, 48 248.675, 48 249.500 M 173 248.702 C 173 249.324, 173.563 250.060, 174.250 250.338 C 174.938 250.615, 174.569 250.878, 173.430 250.921 C 171.770 250.984, 164.255 263.294, 135.430 313.166 C 115.669 347.357, 99.350 375.707, 99.167 376.166 C 98.983 376.625, 132.676 377, 174.039 377 C 234.076 377, 249.041 376.748, 248.235 375.750 C 247.363 374.671, 216.641 321.626, 185.398 267.256 C 175.962 250.837, 173 246.404, 173 248.702 M 266.149 249.604 C 265.406 250.444, 264.956 251.261, 265.149 251.419 C 265.342 251.578, 267.625 252.934, 270.223 254.433 L 274.946 257.158 278.973 254.895 C 282.790 252.750, 284.670 250.145, 281.532 251.349 C 280.725 251.659, 279.798 251.482, 279.473 250.956 C 279.148 250.430, 277.896 250.045, 276.691 250.100 C 274.651 250.192, 274.673 250.255, 277 251 C 279.327 251.745, 279.349 251.808, 277.309 251.900 C 276.104 251.955, 274.840 251.550, 274.500 251 C 274.160 250.450, 273.207 250, 272.382 250 C 271.557 250, 271.114 250.375, 271.397 250.833 C 271.680 251.292, 271.250 251.667, 270.442 251.667 C 269.471 251.667, 269.169 251.044, 269.553 249.833 C 270.269 247.577, 268.072 247.429, 266.149 249.604 M 286 249.559 C 286 250.416, 286.457 250.835, 287.016 250.490 C 287.575 250.144, 287.774 249.443, 287.457 248.931 C 286.600 247.544, 286 247.802, 286 249.559 M 471.079 249.583 C 471.127 250.748, 471.364 250.985, 471.683 250.188 C 471.972 249.466, 471.936 248.603, 471.604 248.271 C 471.272 247.939, 471.036 248.529, 471.079 249.583 M 527 248.893 C 527 249.384, 527.652 250.036, 528.449 250.342 C 529.418 250.714, 529.714 250.418, 529.342 249.449 C 528.735 247.867, 527 247.455, 527 248.893 M 80 250 C 80 250.550, 80.450 251, 81 251 C 81.550 251, 82 250.550, 82 250 C 82 249.450, 81.550 249, 81 249 C 80.450 249, 80 249.450, 80 250 M 69 251.059 C 69 251.641, 69.450 251.840, 70 251.500 C 70.550 251.160, 71 250.684, 71 250.441 C 71 250.198, 70.550 250, 70 250 C 69.450 250, 69 250.477, 69 251.059 M 449 251 C 449 251.550, 449.450 252, 450 252 C 450.550 252, 451 251.550, 451 251 C 451 250.450, 450.550 250, 450 250 C 449.450 250, 449 250.450, 449 251 M 373.537 251.969 C 360.237 274.722, 302.720 374.566, 302.337 375.565 C 301.861 376.804, 311.984 377, 376.393 377 C 417.427 377, 451 376.640, 451 376.200 C 451 375.760, 450.599 374.973, 450.110 374.450 C 449.620 373.928, 433.809 346.725, 414.974 314 C 396.139 281.275, 380.073 253.744, 379.272 252.819 C 377.929 251.270, 374.263 250.726, 373.537 251.969 M 217.212 261.250 C 218.005 262.488, 227.844 279.457, 239.077 298.960 L 259.500 334.420 259.768 309.528 C 259.915 295.837, 259.653 284.253, 259.185 283.785 C 258.169 282.769, 217.028 259, 216.285 259 C 216.002 259, 216.419 260.012, 217.212 261.250 M 312.087 271.051 C 300.860 277.582, 291.289 283.311, 290.819 283.781 C 290.349 284.251, 290.085 295.838, 290.232 309.530 L 290.500 334.425 310.937 298.962 C 322.177 279.458, 332.017 262.488, 332.802 261.250 C 333.587 260.012, 333.841 259.040, 333.365 259.088 C 332.889 259.136, 323.314 264.520, 312.087 271.051 M 129.500 291 C 129.160 291.550, 129.359 292, 129.941 292 C 130.523 292, 131 291.550, 131 291 C 131 290.450, 130.802 290, 130.559 290 C 130.316 290, 129.840 290.450, 129.500 291 M 421 291 C 421 291.550, 421.477 292, 422.059 292 C 422.641 292, 422.840 291.550, 422.500 291 C 422.160 290.450, 421.684 290, 421.441 290 C 421.198 290, 421 290.450, 421 291 M 120 294.500 C 119.282 295.365, 119.185 296, 119.771 296 C 120.329 296, 121.045 295.325, 121.362 294.500 C 121.678 293.675, 121.781 293, 121.591 293 C 121.401 293, 120.685 293.675, 120 294.500 M 127.500 294 C 127.840 294.550, 128.316 295, 128.559 295 C 128.802 295, 129 294.550, 129 294 C 129 293.450, 128.523 293, 127.941 293 C 127.359 293, 127.160 293.450, 127.500 294 M 229.500 294 C 229.160 294.550, 229.359 295, 229.941 295 C 230.523 295, 231 294.550, 231 294 C 231 293.450, 230.802 293, 230.559 293 C 230.316 293, 229.840 293.450, 229.500 294 M 274.573 293.882 C 274.337 294.263, 275.237 294.666, 276.572 294.777 C 277.907 294.887, 279 294.810, 279 294.605 C 279 293.862, 274.990 293.207, 274.573 293.882 M 421.750 293.662 C 422.438 293.940, 423.563 293.940, 424.250 293.662 C 424.938 293.385, 424.375 293.158, 423 293.158 C 421.625 293.158, 421.063 293.385, 421.750 293.662 M 323 295.059 C 323 295.641, 323.450 295.840, 324 295.500 C 324.550 295.160, 325 294.684, 325 294.441 C 325 294.198, 324.550 294, 324 294 C 323.450 294, 323 294.477, 323 295.059 M 245.364 427.250 C 252.108 438.938, 258.147 449.400, 258.783 450.500 C 259.683 452.057, 259.946 447.344, 259.970 429.250 L 260 406 246.551 406 L 233.102 406 245.364 427.250 M 290 429.224 L 290 452.448 296.624 440.974 C 300.267 434.663, 306.326 424.212, 310.088 417.750 L 316.928 406 303.464 406 L 290 406 290 429.224" stroke="none" fill="black" fill-rule="evenodd"/>
</svg>