<?xml version="1.0" standalone="no"?>
<!DOCTYPE svg PUBLIC "-//W3C//DTD SVG 20010904//EN"
 "http://www.w3.org/TR/2001/REC-SVG-20010904/DTD/svg10.dtd">
<svg version="1.0" xmlns="http://www.w3.org/2000/svg"
 width="444.000000pt" height="513.000000pt" viewBox="0 0 444.000000 513.000000"
 preserveAspectRatio="xMidYMid meet">

<g transform="translate(0.000000,513.000000) scale(0.100000,-0.100000)"
fill="#5fa0ed" stroke="none">
<path d="M1846 4480 l-368 -640 -737 -2 -737 -3 367 -637 368 -637 -369 -638
-369 -638 740 -5 740 -5 367 -637 c208 -360 371 -633 376 -628 5 5 172 291
372 637 l362 628 740 5 739 5 -368 638 -368 638 368 637 368 637 -737 3 -737
2 -369 640 c-203 352 -371 640 -374 640 -3 -1 -171 -288 -374 -640z m782 -509
c221 -383 402 -701 402 -704 0 -4 -364 -7 -810 -7 -445 0 -810 3 -810 6 0 10
804 1403 810 1403 3 1 186 -314 408 -698z m-1290 -373 c-8 -13 -50 -85 -93
-160 -71 -124 -81 -136 -98 -126 -35 18 -522 300 -526 304 -2 2 161 4 363 4
l368 0 -14 -22z m2481 18 c-8 -8 -543 -316 -545 -313 -1 1 -34 58 -74 127 -40
69 -81 140 -92 158 l-20 32 368 0 c202 0 365 -2 363 -4z m-2856 -458 c48 -28
87 -52 87 -55 0 -7 -162 -287 -174 -300 -8 -9 -57 68 -186 293 -96 167 -177
309 -178 314 -2 6 79 -38 180 -96 100 -59 222 -129 271 -156z m2935 194 c-256
-448 -324 -560 -334 -549 -18 20 -176 298 -172 303 10 9 524 304 531 304 5 0
-7 -26 -25 -58z m-1099 -326 c-2 -2 -133 -78 -291 -169 l-288 -166 -287 166
c-159 91 -290 167 -292 169 -2 2 258 4 579 4 321 0 581 -2 579 -4z m-1180
-818 c220 -383 401 -699 401 -702 0 -3 -367 -6 -816 -6 -449 0 -814 4 -812 9
15 39 814 1408 819 1403 3 -4 187 -320 408 -704z m2030 -8 l401 -695 -812 -3
c-446 -1 -813 0 -816 2 -2 3 179 323 404 711 251 435 411 701 415 693 4 -7
188 -326 408 -708z m-1825 460 l286 -165 0 -340 c0 -193 -4 -335 -9 -330 -4 6
-129 219 -276 475 -147 256 -277 480 -288 499 -11 19 -15 32 -9 30 6 -2 139
-78 296 -169z m1079 138 c-11 -18 -140 -242 -288 -498 -147 -256 -272 -469
-276 -475 -5 -5 -9 143 -9 330 l0 340 288 167 c158 91 291 167 295 167 5 1 0
-14 -10 -31z m-793 -1835 c0 -181 -4 -313 -9 -307 -6 7 -150 254 -358 617 -2
4 79 7 181 7 l186 0 0 -317z m573 285 c-11 -18 -91 -157 -178 -308 -87 -151
-162 -279 -166 -284 -5 -6 -9 130 -9 307 l0 317 186 0 186 0 -19 -32z"/>
</g>
</svg>
